# xmcd
#
# Track frame offsets:
#	150
#	9439
#	19770
#	30666
#	40737
#	51707
#	59442
#	69403
#	81891
#	92097
#	104960
#	114482
#
# Disc length: 1681 seconds
#
# Revision: 1
# Processed by: cddbd v1.5.2PL0 Copyright (c) Steve Scherf et al.
# Submitted via: audiograbber 1.83.01
#
DISCID=a1068f0c
DTITLE=Johnny Cash - All Aboard the Blue Train
DYEAR=1962
DGENRE=Country
TTITLE0=Blue Train
TTITLE1=There You Go
TTITLE2=Train of Love
TTITLE3=Goodbye Little Darlin'
TTITLE4=I Heard That Lonesome Whistle
TTITLE5=Come in Stranger
TTITLE6=Rock Island Line
TTITLE7=Give My Love to Rose
TTITLE8=Hey, Porter!
TTITLE9=Folsom Prison Blues
TTITLE10=The Wreck of the Old '97
TTITLE11=So Doggone Lonesome
EXTD=
EXTT0=
EXTT1=
EXTT2=
EXTT3=
EXTT4=
EXTT5=
EXTT6=
EXTT7=
EXTT8=
EXTT9=
EXTT10=
EXTT11=
PLAYORDER=
